HIERARCHY
ROOT Hips
{
	OFFSET 0.000000 100.481300 0.000000
	CHANNELS 6 Xposition Yposition Zposition Xrotation Yrotation Zrotation
	JOINT Spine
	{
		OFFSET -0.279200 12.230698 -2.892100
		CHANNELS 3 Xrotation Yrotation Zrotation
		JOINT Spine1
		{
			OFFSET -0.325700 14.269203 -3.374200
			CHANNELS 3 Xrotation Yrotation Zrotation
			JOINT Spine2
			{
				OFFSET -0.372300 16.307602 -0.352600
				CHANNELS 3 Xrotation Yrotation Zrotation
				JOINT Neck
				{
					OFFSET -0.418800 17.814194 8.416900
					CHANNELS 3 Xrotation Yrotation Zrotation
					JOINT Head
					{
						OFFSET 0.000000 7.031097 3.806800
						CHANNELS 3 Xrotation Yrotation Zrotation
						JOINT HeadTop_End
						{
							OFFSET 0.000000 24.646606 12.978600
							CHANNELS 3 Xrotation Yrotation Zrotation
							End Site
							{
								OFFSET 0.000000 27.854965 0.000000
							}
						}
					}
				}
				JOINT LeftShoulder
				{
					OFFSET 16.952999 14.495407 -7.737500
					CHANNELS 3 Xrotation Yrotation Zrotation
					JOINT LeftArm
					{
						OFFSET 9.308998 -2.777710 0.208600
						CHANNELS 3 Xrotation Yrotation Zrotation
						JOINT LeftForeArm
						{
							OFFSET 29.972298 0.000000 0.000000
							CHANNELS 3 Xrotation Yrotation Zrotation
							JOINT LeftHand
							{
								OFFSET 26.026505 0.000000 0.000000
								CHANNELS 3 Xrotation Yrotation Zrotation
								JOINT LeftHandThumb1
								{
									OFFSET 12.240501 -7.147949 9.207150
									CHANNELS 3 Xrotation Yrotation Zrotation
									JOINT LeftHandThumb2
									{
										OFFSET 4.138618 -2.389435 2.389433
										CHANNELS 3 Xrotation Yrotation Zrotation
										JOINT LeftHandThumb3
										{
											OFFSET 2.726913 -1.574387 1.574386
											CHANNELS 3 Xrotation Yrotation Zrotation
											JOINT LeftHandThumb4
											{
												OFFSET 3.941010 -2.275345 2.275342
												CHANNELS 3 Xrotation Yrotation Zrotation
												End Site
												{
													OFFSET -0.005798 5.087799 0.009903
												}
											}
										}
									}
								}
								JOINT LeftHandIndex1
								{
									OFFSET 24.424698 -1.985611 5.953459
									CHANNELS 3 Xrotation Yrotation Zrotation
									JOINT LeftHandIndex2
									{
										OFFSET 6.426697 0.000000 0.000000
										CHANNELS 3 Xrotation Yrotation Zrotation
										JOINT LeftHandIndex3
										{
											OFFSET 5.337898 0.000000 0.000000
											CHANNELS 3 Xrotation Yrotation Zrotation
											JOINT LeftHandIndex4
											{
												OFFSET 4.409401 0.000000 0.000000
												CHANNELS 3 Xrotation Yrotation Zrotation
												End Site
												{
													OFFSET 0.000000 4.409363 0.014373
												}
											}
										}
									}
								}
								JOINT LeftHandMiddle1
								{
									OFFSET 23.810104 0.000000 0.000000
									CHANNELS 3 Xrotation Yrotation Zrotation
									JOINT LeftHandMiddle2
									{
										OFFSET 7.176498 0.000000 0.000000
										CHANNELS 3 Xrotation Yrotation Zrotation
										JOINT LeftHandMiddle3
										{
											OFFSET 6.774902 0.000000 0.000000
											CHANNELS 3 Xrotation Yrotation Zrotation
											JOINT LeftHandMiddle4
											{
												OFFSET 5.403328 0.000000 0.000000
												CHANNELS 3 Xrotation Yrotation Zrotation
												End Site
												{
													OFFSET -0.027702 5.403244 0.017414
												}
											}
										}
									}
								}
								JOINT LeftHandRing1
								{
									OFFSET 22.908401 -0.839279 -6.020567
									CHANNELS 3 Xrotation Yrotation Zrotation
									JOINT LeftHandRing2
									{
										OFFSET 6.337502 0.000000 0.000000
										CHANNELS 3 Xrotation Yrotation Zrotation
										JOINT LeftHandRing3
										{
											OFFSET 5.779297 0.000000 0.000000
											CHANNELS 3 Xrotation Yrotation Zrotation
											JOINT LeftHandRing4
											{
												OFFSET 4.965698 0.000000 0.000000
												CHANNELS 3 Xrotation Yrotation Zrotation
												End Site
												{
													OFFSET 0.000000 4.965668 0.016186
												}
											}
										}
									}
								}
								JOINT LeftHandPinky1
								{
									OFFSET 20.037003 -1.530319 -10.950146
									CHANNELS 3 Xrotation Yrotation Zrotation
									JOINT LeftHandPinky2
									{
										OFFSET 5.254700 0.000000 0.000000
										CHANNELS 3 Xrotation Yrotation Zrotation
										JOINT LeftHandPinky3
										{
											OFFSET 4.810204 0.000000 0.000000
											CHANNELS 3 Xrotation Yrotation Zrotation
											JOINT LeftHandPinky4
											{
												OFFSET 3.647202 0.000000 0.000000
												CHANNELS 3 Xrotation Yrotation Zrotation
												End Site
												{
													OFFSET 0.000000 3.647186 0.011889
												}
											}
										}
									}
								}
							}
						}
					}
				}
				JOINT RightShoulder
				{
					OFFSET -15.141001 14.495407 -7.737500
					CHANNELS 3 Xrotation Yrotation Zrotation
					JOINT RightArm
					{
						OFFSET -9.308998 -2.777710 0.208500
						CHANNELS 3 Xrotation Yrotation Zrotation
						JOINT RightForeArm
						{
							OFFSET -29.972300 0.000000 0.000000
							CHANNELS 3 Xrotation Yrotation Zrotation
							JOINT RightHand
							{
								OFFSET -26.026505 0.000000 0.000000
								CHANNELS 3 Xrotation Yrotation Zrotation
								JOINT RightHandThumb1
								{
									OFFSET -12.240601 -7.148026 9.207092
									CHANNELS 3 Xrotation Yrotation Zrotation
									JOINT RightHandThumb2
									{
										OFFSET -4.138618 -2.389435 2.389433
										CHANNELS 3 Xrotation Yrotation Zrotation
										JOINT RightHandThumb3
										{
											OFFSET -2.726974 -1.574417 1.574421
											CHANNELS 3 Xrotation Yrotation Zrotation
											JOINT RightHandThumb4
											{
												OFFSET -3.941010 -2.275345 2.275343
												CHANNELS 3 Xrotation Yrotation Zrotation
												End Site
												{
													OFFSET 0.005814 5.087799 0.009927
												}
											}
										}
									}
								}
								JOINT RightHandIndex1
								{
									OFFSET -24.424698 -1.985657 5.953444
									CHANNELS 3 Xrotation Yrotation Zrotation
									JOINT RightHandIndex2
									{
										OFFSET -6.426697 0.000000 0.000000
										CHANNELS 3 Xrotation Yrotation Zrotation
										JOINT RightHandIndex3
										{
											OFFSET -5.337898 0.000000 0.000000
											CHANNELS 3 Xrotation Yrotation Zrotation
											JOINT RightHandIndex4
											{
												OFFSET -4.409401 0.000000 0.000000
												CHANNELS 3 Xrotation Yrotation Zrotation
												End Site
												{
													OFFSET 0.000000 4.409363 0.014408
												}
											}
										}
									}
								}
								JOINT RightHandMiddle1
								{
									OFFSET -23.810097 0.000000 0.000000
									CHANNELS 3 Xrotation Yrotation Zrotation
									JOINT RightHandMiddle2
									{
										OFFSET -7.176498 0.000000 0.000000
										CHANNELS 3 Xrotation Yrotation Zrotation
										JOINT RightHandMiddle3
										{
											OFFSET -6.774902 0.000000 0.000000
											CHANNELS 3 Xrotation Yrotation Zrotation
											JOINT RightHandMiddle4
											{
												OFFSET -5.403328 0.000000 0.000000
												CHANNELS 3 Xrotation Yrotation Zrotation
												End Site
												{
													OFFSET 0.027702 5.403244 0.017457
												}
											}
										}
									}
								}
								JOINT RightHandRing1
								{
									OFFSET -22.908302 -0.839325 -6.020576
									CHANNELS 3 Xrotation Yrotation Zrotation
									JOINT RightHandRing2
									{
										OFFSET -6.337502 0.000000 0.000000
										CHANNELS 3 Xrotation Yrotation Zrotation
										JOINT RightHandRing3
										{
											OFFSET -5.779297 0.000000 0.000000
											CHANNELS 3 Xrotation Yrotation Zrotation
											JOINT RightHandRing4
											{
												OFFSET -4.965698 0.000000 0.000000
												CHANNELS 3 Xrotation Yrotation Zrotation
												End Site
												{
													OFFSET 0.000000 4.965668 0.016226
												}
											}
										}
									}
								}
								JOINT RightHandPinky1
								{
									OFFSET -20.037003 -1.530334 -10.950259
									CHANNELS 3 Xrotation Yrotation Zrotation
									JOINT RightHandPinky2
									{
										OFFSET -5.254700 0.000000 0.000000
										CHANNELS 3 Xrotation Yrotation Zrotation
										JOINT RightHandPinky3
										{
											OFFSET -4.810204 0.000000 0.000000
											CHANNELS 3 Xrotation Yrotation Zrotation
											JOINT RightHandPinky4
											{
												OFFSET -3.647202 0.000000 0.000000
												CHANNELS 3 Xrotation Yrotation Zrotation
												End Site
												{
													OFFSET 0.000000 3.647186 0.011917
												}
											}
										}
									}
								}
							}
						}
					}
				}
			}
		}
	}
	JOINT LeftUpLeg
	{
		OFFSET 15.427100 -6.655098 0.678600
		CHANNELS 3 Xrotation Yrotation Zrotation
		JOINT LeftLeg
		{
			OFFSET 4.081073 -39.591068 13.024000
			CHANNELS 3 Xrotation Yrotation Zrotation
			JOINT LeftFoot
			{
				OFFSET -4.081074 -37.707932 -15.979700
				CHANNELS 3 Xrotation Yrotation Zrotation
				JOINT LeftToeBase
				{
					OFFSET 5.346399 -15.068900 20.645000
					CHANNELS 3 Xrotation Yrotation Zrotation
					JOINT LeftToe_End
					{
						OFFSET 2.754700 0.931300 11.300900
						CHANNELS 3 Xrotation Yrotation Zrotation
						End Site
						{
							OFFSET 0.000000 11.669021 0.000000
						}
					}
				}
			}
		}
	}
	JOINT RightUpLeg
	{
		OFFSET -15.569500 -6.655098 0.678600
		CHANNELS 3 Xrotation Yrotation Zrotation
		JOINT RightLeg
		{
			OFFSET -4.081825 -39.591045 13.023800
			CHANNELS 3 Xrotation Yrotation Zrotation
			JOINT RightFoot
			{
				OFFSET 4.081824 -37.707954 -15.979600
				CHANNELS 3 Xrotation Yrotation Zrotation
				JOINT RightToeBase
				{
					OFFSET -5.346400 -15.068900 20.645000
					CHANNELS 3 Xrotation Yrotation Zrotation
					JOINT RightToe_End
					{
						OFFSET -2.754700 0.931300 11.300900
						CHANNELS 3 Xrotation Yrotation Zrotation
						End Site
						{
							OFFSET 0.000000 11.669021 0.000000
						}
					}
				}
			}
		}
	}
}
MOTION
Frames: 4
Frame Time: 0.033333
-127.159103 62.443558 340.083191 127.198777 5.885475 171.014659 22.592746 -2.470170 -17.466319 5.562831 -0.870192 -5.299179 5.570634 -0.468958 -5.612287 1.794791 0.983551 -4.056753 -4.134617 -4.458454 8.894990 -0.000001 0.000002 0.000003 8.212383 7.169253 34.804527 -82.703475 -13.170020 -30.226862 0.000014 -32.229484 0.000012 -24.174568 10.231982 3.448262 -6.807908 6.593339 -11.987447 5.803835 20.081566 8.616980 -6.240939 9.600122 14.787059 -0.000000 -0.000000 0.000001 0.764434 0.074622 -22.069174 0.409181 2.152854 -21.520610 0.268221 1.754018 -17.387193 -0.000002 -0.000001 -0.000002 1.187030 5.922323 -28.051570 0.810361 2.974758 -30.470782 0.651041 2.686000 -27.245199 0.000001 0.000000 -0.000000 4.164065 10.000335 -35.063357 1.041468 3.335998 -34.667411 0.865931 3.067107 -31.525134 0.000001 -0.000001 -0.000001 2.447690 14.267074 -31.904281 0.904623 3.129220 -32.241020 0.773341 2.910997 -29.749722 -0.000000 0.000000 0.000001 5.400592 15.422448 -19.445923 -59.673785 3.484800 11.338413 -0.000144 98.524837 0.000137 -5.032062 1.486246 -7.966822 -13.312869 4.841269 -6.225240 7.429464 -21.463711 -5.948929 -4.157094 -19.879959 -18.134697 -0.000002 -0.000000 -0.000001 0.402155 7.103262 -1.791682 0.430661 -1.957785 24.810316 0.331441 -1.727111 21.724648 -0.000004 0.000001 0.000000 -0.388809 0.129422 9.100993 0.499623 -2.100432 26.757613 0.414489 -1.922386 24.332148 0.000003 0.000000 0.000002 0.272656 -3.718650 16.245023 0.481012 -2.063137 26.245352 0.378528 -1.840866 23.237255 -0.000001 0.000000 -0.000000 -0.491603 -19.418422 16.715288 0.436891 -1.971165 24.991812 0.348765 -1.769960 22.292464 0.000001 -0.000001 -0.000001 -117.669488 -9.522556 16.243057 77.121025 0.422319 -2.669386 -11.587922 8.372747 0.297391 -0.378878 -0.000001 -0.000001 -0.000000 0.000001 0.000000 -35.621889 -13.145282 -16.372986 51.688396 9.191853 6.302750 -36.753074 -4.561980 10.319047 -25.962510 -0.055632 2.508666 -0.000000 0.000001 -0.000001 
-125.985062 61.624153 343.231049 130.092127 5.107408 173.098591 21.649755 -1.258081 -16.503289 5.571143 -0.549309 -4.978175 5.559081 -0.291582 -5.158363 1.484289 0.845631 -4.026332 -4.909703 -5.516240 8.831348 -0.000000 -0.000001 -0.000003 8.792350 4.186175 28.787738 -70.830407 -16.110634 -24.011305 0.000007 -34.505009 0.000006 -24.719126 10.764003 0.893582 0.953589 -2.169909 -7.170466 6.969923 23.997026 4.866985 -5.844247 10.337205 15.375934 -0.000000 0.000001 0.000003 0.266947 2.099210 -23.169124 0.352439 2.003096 -19.955863 0.299444 1.850745 -18.379974 -0.000001 -0.000002 -0.000003 1.788585 6.774799 -32.199062 0.936423 3.179007 -32.819042 0.861094 3.059236 -31.434767 -0.000000 -0.000004 -0.000002 4.677501 10.000507 -39.604340 1.270152 3.643967 -38.422734 1.206714 3.562694 -37.413471 -0.000000 -0.000001 0.000000 3.189989 12.758116 -35.320500 1.086407 3.399950 -35.432255 1.164174 3.506491 -36.723537 0.000001 -0.000001 0.000000 4.072447 14.254587 -12.109894 -54.357015 7.212540 12.563680 -0.000458 95.131906 0.000468 -0.601975 5.351267 -10.314501 -9.809495 4.714736 -8.021135 7.275278 -20.728075 -6.276859 -3.879889 -23.097958 -18.640932 -0.000001 -0.000000 -0.000000 0.894120 8.679129 -4.074828 0.405440 -1.902282 24.061247 0.246383 -1.496210 18.701401 0.000002 -0.000000 0.000001 -0.321006 1.066898 6.033629 0.425166 -1.945838 24.648583 0.323844 -1.707902 21.470814 0.000002 0.000000 -0.000001 0.241637 -3.650363 13.052391 0.417040 -1.928037 24.408444 0.353537 -1.781556 22.446616 -0.000004 0.000000 -0.000000 -1.135823 -19.915372 12.364699 0.403188 -1.897241 23.993502 0.322836 -1.705382 21.437597 -0.000002 -0.000000 -0.000000 -116.886366 -10.118860 16.435411 76.205739 1.450385 -3.241474 -7.434507 8.438910 -1.158545 -0.524619 0.000013 0.000001 -0.000000 -0.000001 -0.000000 -34.443230 -12.242766 -16.333673 52.360117 7.988213 6.924068 -48.078299 -8.640012 11.475771 -26.970177 0.000011 0.000006 -0.000000 -0.000002 -0.000001 
-124.697601 61.151405 345.911926 132.905864 4.838359 175.163152 20.624313 -0.192315 -15.783524 5.458345 -0.263075 -4.622590 5.434920 -0.113706 -4.703393 1.180829 0.738742 -4.010908 -5.566106 -6.302739 8.827010 -0.000001 0.000002 0.000000 8.697473 0.731260 21.622953 -58.024977 -17.241725 -18.184786 -0.000000 -39.632176 0.000002 -25.508508 12.538769 2.063327 8.343039 -8.098858 -5.550245 7.801329 27.647738 1.445313 -5.748154 9.830619 15.668345 -0.000002 0.000001 -0.000002 0.433058 4.344252 -24.740851 0.244633 1.676856 -16.599154 0.266785 1.749407 -17.340037 0.000002 -0.000001 -0.000001 2.493735 7.537837 -36.790401 0.925277 3.161676 -32.617288 0.885290 3.098401 -31.885119 -0.000001 0.000000 0.000000 4.770349 9.667165 -43.085486 1.335672 3.724920 -39.442457 1.308884 3.692172 -39.028261 0.000000 0.000001 -0.000001 4.589274 11.673113 -38.328119 1.162573 3.504344 -36.697162 1.459169 3.869827 -41.306949 -0.000000 0.000003 0.000000 2.856882 13.004849 -4.670380 -48.315037 7.151156 12.436265 0.000259 93.405781 -0.000234 -0.861244 7.678824 -12.150082 -7.443881 4.745641 -7.468514 7.286860 -20.490030 -6.359496 -3.762134 -24.669733 -18.902113 -0.000000 -0.000000 -0.000000 0.938114 9.071390 -4.120328 0.374058 -1.830400 23.097613 0.166161 -1.234174 15.335001 0.000002 -0.000000 0.000000 -0.279439 1.297385 5.111541 0.402885 -1.896571 23.984213 0.301776 -1.650763 20.718474 -0.000002 -0.000000 0.000001 0.258520 -3.757276 12.074751 0.400660 -1.891560 23.916896 0.343728 -1.757641 22.128952 -0.000001 -0.000001 -0.000000 -1.356457 -19.331963 9.940989 0.379411 -1.842913 23.264739 0.335509 -1.737279 21.859319 -0.000000 0.000001 -0.000000 -115.079617 -10.847171 17.305963 74.973197 2.313133 -3.791542 -3.934828 8.476954 -2.891903 -0.594518 -0.000010 -0.000004 -0.000000 0.000002 0.000000 -34.962325 -11.315334 -17.322786 55.150373 8.262542 7.278203 -53.090989 -9.356941 10.624408 -27.893388 -0.000006 0.000003 -0.000001 -0.000002 0.000001 
-123.470276 61.803719 346.738098 135.565731 5.390432 176.664332 19.266709 0.633576 -15.165091 5.094154 -0.052658 -4.157071 5.071923 0.040650 -4.190561 0.923422 0.703320 -4.029109 -5.954719 -6.464850 8.939865 0.000001 0.000001 -0.000002 7.804995 -2.703520 14.211862 -44.843621 -16.101073 -12.514410 -0.000012 -49.050372 -0.000020 -27.098656 15.857356 6.313981 15.332093 -13.620677 -5.501973 8.425216 30.795643 -1.535579 -5.795742 8.819829 15.813686 -0.000001 -0.000000 0.000001 1.377498 6.358548 -26.497538 0.133898 1.246644 -12.260429 0.201788 1.525840 -15.066182 0.000002 -0.000000 -0.000000 3.269692 8.167592 -41.665124 0.834893 3.015998 -30.940245 0.796300 2.950741 -30.198606 -0.000000 -0.000001 -0.000001 4.571131 9.177455 -45.909567 1.296268 3.676573 -38.831736 1.262054 3.633755 -38.295225 0.000000 -0.000000 0.000000 5.913670 11.209665 -41.047975 1.177810 3.524666 -36.945808 1.714178 4.141375 -44.956206 -0.000001 -0.000003 -0.000000 1.830169 11.786328 0.966507 -40.224733 3.079316 12.704541 0.002658 92.554514 -0.002662 -0.731711 7.811988 -15.843484 -5.394855 4.975275 -5.702964 7.347741 -20.388822 -6.343479 -3.701565 -25.582745 -19.061508 0.000000 -0.000002 0.000000 0.941782 9.021242 -3.167882 0.331076 -1.726237 21.712832 0.091958 -0.921860 11.392337 -0.000000 0.000000 -0.000001 -0.269179 1.281965 4.982226 0.390154 -1.867694 23.596531 0.294839 -1.632328 20.476603 -0.000000 -0.000000 0.000001 0.316787 -4.045879 11.812301 0.394243 -1.877003 23.721698 0.339801 -1.747979 22.000733 -0.000000 0.000001 -0.000000 -1.343133 -18.340905 8.045650 0.355316 -1.785889 22.504042 0.360855 -1.799144 22.680613 0.000001 -0.000000 -0.000001 -110.807901 -11.363965 19.157699 73.698800 2.632005 -4.140994 -3.046571 8.690030 -4.739782 -0.584483 -0.000005 -0.000003 -0.000000 0.000001 -0.000000 -35.369298 -10.761434 -18.292421 58.067529 9.773726 7.071806 -51.500746 -8.795237 9.268649 -31.298048 0.000002 -0.000000 0.000002 0.000001 0.000002 
